HIERARCHY
ROOT Hips
{
	OFFSET 0.000000 0.000000 0.000000
	CHANNELS 6 Xposition Yposition Zposition Zrotation Yrotation Xrotation 
	JOINT LeftUpLeg_virtual
	{
		OFFSET 0.000000 0.000000 0.000000
		CHANNELS 3 Zrotation Yrotation Xrotation
		JOINT LeftUpLeg
		{
			OFFSET 10.205400 -3.823500 0.155100
			CHANNELS 3 Zrotation Yrotation Xrotation
			JOINT LeftLeg
			{
				OFFSET 0.708757 -12.982077 0.567790
				CHANNELS 3 Zrotation Yrotation Xrotation
				JOINT LeftFoot
				{
					OFFSET -0.708756 -10.717838 -2.184338
					CHANNELS 3 Zrotation Yrotation Xrotation
					JOINT LeftToeBase
					{
						OFFSET 0.108149 -7.191104 7.560241
						CHANNELS 3 Zrotation Yrotation Xrotation
						End Site
						{
							OFFSET 0.000000 0.000000 0.000000
						}
					}
				}
			}
		}
	}
	JOINT RightUpLeg_virtual
	{
		OFFSET 0.000000 0.000000 0.000000
		CHANNELS 3 Zrotation Yrotation Xrotation
		JOINT RightUpLeg
		{
			OFFSET -10.205400 -3.823500 0.005500
			CHANNELS 3 Zrotation Yrotation Xrotation
			JOINT RightLeg
			{
				OFFSET -0.708756 -12.982134 0.610632
				CHANNELS 3 Zrotation Yrotation Xrotation
				JOINT RightFoot
				{
					OFFSET 0.708754 -10.717769 -1.945823
					CHANNELS 3 Zrotation Yrotation Xrotation
					JOINT RightToeBase
					{
						OFFSET -0.108140 -7.191069 7.372968
						CHANNELS 3 Zrotation Yrotation Xrotation
						End Site
						{
							OFFSET 0.000000 0.000000 0.000000
						}
					}
				}
			}
		}
	}
	JOINT Spine_virtual
	{
		OFFSET 0.000000 0.000000 0.000000
		CHANNELS 3 Zrotation Yrotation Xrotation
		JOINT Spine
		{
			OFFSET 0.000000 6.876099 0.125700
			CHANNELS 3 Zrotation Yrotation Xrotation
			JOINT Spine1
			{
				OFFSET 0.000000 8.022060 0.146608
				CHANNELS 3 Zrotation Yrotation Xrotation
				JOINT Spine2
				{
					OFFSET 0.000000 9.168068 0.167552
					CHANNELS 3 Zrotation Yrotation Xrotation
					JOINT Neck_virtual
					{
						OFFSET 0.000000 0.000000 0.000000
						CHANNELS 3 Zrotation Yrotation Xrotation
						JOINT Neck
						{
							OFFSET 0.000000 10.314075 0.188496
							CHANNELS 3 Zrotation Yrotation Xrotation
							JOINT Head
							{
								OFFSET 0.000000 7.643700 -2.377400
								CHANNELS 3 Zrotation Yrotation Xrotation
								End Site
								{
									OFFSET 0.000000 0.000000 0.000000
								}
							}
						}
					}
					JOINT LeftShoulder_virtual
					{
						OFFSET 0.000000 0.000000 0.000000
						CHANNELS 3 Zrotation Yrotation Xrotation
						JOINT LeftShoulder
						{
							OFFSET 4.392200 8.824978 0.174984
							CHANNELS 3 Zrotation Yrotation Xrotation
							JOINT LeftArm
							{
								OFFSET 8.771219 -2.981674 -0.026999
								CHANNELS 3 Zrotation Yrotation Xrotation
								JOINT LeftForeArm
								{
									OFFSET 8.512804 0.000000 -0.000000
									CHANNELS 3 Zrotation Yrotation Xrotation
									JOINT LeftHand
									{
										OFFSET 18.484802 0.000000 -0.000000
										CHANNELS 3 Zrotation Yrotation Xrotation
										End Site
										{
											OFFSET 0.000000 0.000000 0.000000
										}
									}
								}
							}
						}
					}
					JOINT RightShoulder_virtual
					{
						OFFSET 0.000000 0.000000 0.000000
						CHANNELS 3 Zrotation Yrotation Xrotation
						JOINT RightShoulder
						{
							OFFSET -4.392200 8.824993 0.141379
							CHANNELS 3 Zrotation Yrotation Xrotation
							JOINT RightArm
							{
								OFFSET -8.771282 -2.981682 -0.094208
								CHANNELS 3 Zrotation Yrotation Xrotation
								JOINT RightForeArm
								{
									OFFSET -8.494598 0.000000 0.000000
									CHANNELS 3 Zrotation Yrotation Xrotation
									JOINT RightHand
									{
										OFFSET -18.483803 0.000000 0.000001
										CHANNELS 3 Zrotation Yrotation Xrotation
										End Site
										{
											OFFSET 0.000000 0.000000 0.000000
										}
									}
								}
							}
						}
					}
				}
			}
		}
	}
}
MOTION
Frames: 7
Frame Time: 0.033333
4.820259 36.398975 -4.412036 179.817926 -5.079930 179.659780 -0.524782 -4.305645 6.294559 -3.014100 -3.471632 -25.153696 8.348761 5.487338 18.177480 -5.960909 -3.039003 20.648896 0.000000 0.000000 0.000000 4.756699 -4.473271 4.360209 7.860256 1.728727 -15.308850 -3.152344 -1.370058 19.679749 1.646799 2.560090 4.661419 0.000000 0.000000 0.000000 3.073709 -1.512129 -7.266869 0.660653 3.536489 -7.091560 -1.636217 -3.122025 10.113547 -0.009834 0.076007 0.009710 -1.818290 -1.374343 12.049723 -1.320680 -1.314218 14.562745 0.000000 0.000000 0.000000 -0.328488 -0.780814 8.475385 -3.709080 -1.013669 0.230975 -12.774791 2.265230 3.510118 -3.955530 -70.971116 5.814148 0.000000 0.000000 0.000000 -4.114098 0.376904 8.099144 30.816809 6.380412 4.056215 45.097079 -13.028413 10.112437 -4.777534 36.389192 -2.112200 0.000000 0.000000 0.000000 
4.988227 36.395561 -4.386320 179.779513 -4.342016 179.551398 -0.535222 -4.022967 6.268453 -2.596425 -3.509912 -24.892189 8.350862 5.410309 18.104074 -6.300914 -2.897056 20.720115 0.000000 0.000000 0.000000 4.731468 -4.314883 4.289933 8.277229 1.504847 -14.953400 -3.336056 -1.482275 19.177998 2.074896 2.658699 4.880583 0.000000 0.000000 0.000000 2.949936 -1.479142 -7.242741 0.498255 3.573120 -7.075582 -1.568974 -2.927073 10.090966 0.033486 0.067137 -0.028083 -1.847004 -1.252402 12.026748 -1.473361 -1.426856 14.558734 0.000000 0.000000 0.000000 -0.314571 -0.790483 8.518899 -3.844736 -1.514105 0.566977 -14.479654 2.123839 6.028016 -4.719199 -76.619874 7.795288 0.000000 0.000000 0.000000 -4.112558 0.384173 8.144258 30.807360 6.249695 3.996376 45.690735 -13.115243 11.282532 -4.654914 36.886116 -2.256908 0.000000 0.000000 0.000000 
5.139187 36.388657 -4.340771 179.753777 -3.556261 179.532369 -0.482313 -3.910243 5.983591 -2.108967 -3.585760 -24.458474 8.212838 5.451969 18.193049 -6.277974 -3.004427 20.605081 0.000000 0.000000 0.000000 4.685176 -4.210582 4.079164 8.723383 1.396835 -14.598518 -3.517431 -1.549696 18.560571 2.367988 2.734985 5.169729 0.000000 0.000000 0.000000 2.799946 -1.435090 -7.302074 0.329737 3.315381 -7.056022 -1.602283 -3.000614 10.132389 0.031181 0.155040 0.021185 -1.867215 -1.231710 11.961224 -1.680946 -1.334294 14.692825 0.000000 0.000000 0.000000 -0.298230 -0.735501 8.418470 -3.834368 -1.844680 0.806121 -16.050463 1.428784 8.987430 -7.986370 -82.425521 12.450759 0.000000 0.000000 0.000000 -4.109034 0.405239 8.101750 30.764067 6.257266 3.889925 46.256326 -13.450520 12.434991 -4.435284 37.363126 -2.437300 0.000000 0.000000 0.000000 
5.281682 36.379749 -4.282773 179.716498 -2.533230 179.539773 -0.498163 -3.750394 5.732117 -1.649579 -3.323259 -24.193993 8.034696 5.395764 18.584868 -6.407021 -2.861544 20.400006 0.000000 0.000000 0.000000 4.594025 -4.007869 3.816397 9.221161 1.399424 -14.232469 -3.680602 -1.584027 17.946621 2.521813 2.810047 5.551784 0.000000 0.000000 0.000000 2.606035 -1.169525 -7.305711 0.173776 2.996326 -7.074593 -1.663035 -3.119213 10.105459 0.015686 0.072696 -0.053350 -1.891057 -1.243471 12.045173 -1.997136 -1.077375 14.885444 0.000000 0.000000 0.000000 -0.317835 -0.653740 8.480884 -3.734883 -2.164963 0.911944 -17.439435 0.338873 12.278966 -31.901242 -87.655820 37.893763 0.000000 0.000000 0.000000 -4.117478 0.447443 8.245445 30.707858 6.416828 3.920766 46.777855 -13.876355 13.603726 -4.290632 37.742608 -2.779559 0.000000 0.000000 0.000000 
5.436825 36.373325 -4.224409 179.670339 -1.390979 179.569375 -0.551270 -3.606301 5.551755 -1.100645 -2.975417 -24.076970 7.820761 5.326935 19.144151 -6.492991 -2.760215 20.084885 0.000000 0.000000 0.000000 4.498566 -3.767990 3.577630 9.757976 1.465266 -13.939139 -3.849901 -1.611358 17.306559 2.592521 2.935095 6.053579 0.000000 0.000000 0.000000 2.376027 -0.914793 -7.283747 0.045067 2.722919 -7.155117 -1.756163 -3.162112 10.100859 0.032813 0.075120 0.008163 -1.886374 -1.296208 12.068559 -2.448400 -0.700990 15.214473 0.000000 0.000000 0.000000 -0.350552 -0.839771 8.433594 -3.555684 -2.628737 1.338367 -18.563423 -1.378140 15.524036 -154.519534 -86.909021 162.141246 0.000000 0.000000 0.000000 -4.125307 0.374775 8.174310 30.568536 6.526498 3.944686 47.370169 -14.370856 14.500369 -3.886007 38.068336 -2.900910 0.000000 0.000000 0.000000 
5.601565 36.369072 -4.162779 179.651884 0.119211 179.500991 -0.625961 -3.165263 5.392741 -0.488535 -2.640772 -23.789296 7.614136 5.170890 19.666751 -6.557045 -2.595588 19.721336 0.000000 0.000000 0.000000 4.439817 -3.259584 3.458385 10.309178 1.563317 -13.677289 -4.047622 -1.621761 16.767812 2.604373 3.144688 6.618221 0.000000 0.000000 0.000000 2.175259 -0.625462 -7.079240 -0.054218 2.441601 -7.347109 -1.806391 -3.197760 10.000499 0.028986 0.106475 -0.026464 -2.064686 -1.343815 12.062517 -3.036295 -0.293301 15.464178 0.000000 0.000000 0.000000 -0.365097 -0.880039 8.482867 -3.327853 -2.907882 1.391847 -19.441104 -3.649251 18.673281 -165.225322 -83.353320 174.532261 0.000000 0.000000 0.000000 -4.188992 0.322514 8.256713 30.438963 6.759629 3.962524 47.821744 -14.942521 15.399491 -3.556159 38.198075 -3.084187 0.000000 0.000000 0.000000 
5.761690 36.363544 -4.109438 179.616941 1.492229 179.510677 -0.698071 -2.982256 5.269409 0.137396 -2.395681 -23.473909 7.400092 5.165221 20.053193 -6.405246 -2.467380 19.186071 0.000000 0.000000 0.000000 4.337488 -2.916017 3.386663 10.872379 1.721255 -13.565452 -4.192279 -1.622172 16.173347 2.541554 3.385162 7.334102 0.000000 0.000000 0.000000 1.914266 -0.354496 -6.945493 -0.106690 2.049893 -7.627874 -1.914988 -3.335156 9.915486 0.031673 0.068257 -0.037681 -2.142911 -1.487050 12.013037 -3.609676 0.252324 15.823335 0.000000 0.000000 0.000000 -0.403554 -0.991782 8.446311 -3.105904 -3.127782 1.611547 -20.251916 -6.515014 21.393734 -168.551092 -80.909424 179.538790 0.000000 0.000000 0.000000 -4.242673 0.208931 8.238111 30.269028 7.047326 3.946146 48.155327 -15.517773 16.023641 -3.122161 38.162231 -3.294949 0.000000 0.000000 0.000000 
